<?xml version="1.0" encoding="utf-8"?>
<!-- Generator: Adobe Illustrator 25.0.0, SVG Export Plug-In . SVG Version: 6.00 Build 0)  -->
<svg version="1.1" id="Layer_1" xmlns="http://www.w3.org/2000/svg" xmlns:xlink="http://www.w3.org/1999/xlink" x="0px" y="0px"
	 viewBox="0 0 1000 1000" style="enable-background:new 0 0 1000 1000;" xml:space="preserve">
<style type="text/css">
	.st0{fill:none;stroke:#212121;stroke-width:63;stroke-miterlimit:10;}
	.st1{fill:none;stroke:#F59C27;stroke-width:63;stroke-miterlimit:10;}
	.st2{fill:#FFFFFF;stroke:#000000;stroke-miterlimit:10;}
</style>
<path class="st0" d="M602.3,233.59C602,392,603,551,602,709c0,5-2,10-6,14c-2,1-3,3-5,5c-6,5-14,5-21,6c-56,1-113,3-169-1
	c-11-4-19-14-20-25c-1-17,0-34-0.25-51.12"/>
<path class="st1" d="M491.12,85v470.52c0,16.72,12.53,30.27,27.99,30.27H685.8c15.46,0,27.99-13.55,27.99-30.27v-0.75"/>
<path class="st2" d="M710.99,734.38"/>
</svg>
